<svg xmlns="http://www.w3.org/2000/svg" xmlns:xlink="http://www.w3.org/1999/xlink" width="100%" zoomAndPan="magnify" viewBox="467 397 488 111" height="100%" preserveAspectRatio="xMidYMid meet" version="1.0"><defs><g/></defs><g fill="#8A6B24" fill-opacity="1"><g transform="translate(515.179667, 474.950768)"><g><path d="M 41.28125 -56.484375 C 39.550781 -53.691406 36.988281 -49.5625 33.59375 -44.09375 C 26.125 -32.09375 20.253906 -23.128906 15.984375 -17.203125 C 18.453125 -19.597656 22.222656 -22.992188 27.296875 -27.390625 C 27.359375 -27.722656 27.472656 -28.207031 27.640625 -28.84375 C 27.804688 -29.476562 28.023438 -30.296875 28.296875 -31.296875 C 28.691406 -32.023438 29.15625 -32.570312 29.6875 -32.9375 C 30.21875 -33.3125 30.550781 -32.960938 30.6875 -31.890625 C 30.625 -31.554688 30.554688 -31.054688 30.484375 -30.390625 L 30.6875 -30.6875 C 32.75 -32.5625 39.394531 -37.429688 50.625 -45.296875 C 61.863281 -53.160156 68.484375 -57.507812 70.484375 -58.34375 C 72.484375 -59.175781 74.097656 -59.59375 75.328125 -59.59375 C 76.566406 -59.59375 77.351562 -59.304688 77.6875 -58.734375 C 78.019531 -58.171875 78.117188 -57.601562 77.984375 -57.03125 C 77.847656 -56.46875 77.429688 -55.9375 76.734375 -55.4375 C 76.035156 -54.9375 75.234375 -54.484375 74.328125 -54.078125 C 73.429688 -53.679688 70.5 -52.25 65.53125 -49.78125 C 60.5625 -47.320312 56.015625 -44.894531 51.890625 -42.5 C 41.890625 -36.625 34.789062 -31.859375 30.59375 -28.203125 C 30.851562 -22.660156 31.382812 -18.289062 32.1875 -15.09375 C 32.988281 -11.894531 34.570312 -8.28125 36.9375 -4.25 C 39.300781 -0.21875 41.851562 1.796875 44.59375 1.796875 C 45.71875 1.796875 46.582031 1.492188 47.1875 0.890625 C 47.789062 0.296875 48.125 -0.46875 48.1875 -1.40625 C 48.25 -3.269531 48.015625 -4.785156 47.484375 -5.953125 C 46.953125 -7.117188 47.003906 -7.703125 47.640625 -7.703125 C 48.273438 -7.703125 48.804688 -7.414062 49.234375 -6.84375 C 49.671875 -6.28125 50.003906 -5.445312 50.234375 -4.34375 C 50.460938 -3.25 50.515625 -2.300781 50.390625 -1.5 C 49.859375 0.363281 48.609375 1.828125 46.640625 2.890625 C 44.671875 3.960938 42.882812 4.5 41.28125 4.5 C 38.28125 4.5 35.75 3.613281 33.6875 1.84375 C 31.625 0.0820312 30.125 -2.332031 29.1875 -5.40625 C 27.457031 -11 26.757812 -17.460938 27.09375 -24.796875 C 17.625 -16.066406 11.054688 -9.769531 7.390625 -5.90625 C -2.078125 5.226562 -10.175781 11.765625 -16.90625 13.703125 C -18.832031 14.296875 -20.460938 14.59375 -21.796875 14.59375 C -26.734375 14.59375 -29.300781 12.492188 -29.5 8.296875 C -29.5 8.035156 -29.460938 7.753906 -29.390625 7.453125 C -29.328125 7.148438 -29.195312 6.78125 -29 6.34375 C -28.800781 5.914062 -28.550781 5.765625 -28.25 5.890625 C -27.945312 6.023438 -27.765625 6.660156 -27.703125 7.796875 C -27.503906 9.796875 -26.503906 11.03125 -24.703125 11.5 C -23.304688 11.757812 -22.054688 11.890625 -20.953125 11.890625 C -19.847656 11.890625 -18.863281 11.757812 -18 11.5 C -10.664062 9.300781 -2.398438 2.300781 6.796875 -9.5 C 14.253906 -19.300781 21.882812 -31.632812 29.6875 -46.5 C 25.488281 -43.363281 20.753906 -41.53125 15.484375 -41 C 15.023438 -41 14.710938 -41.113281 14.546875 -41.34375 C 14.378906 -41.570312 14.425781 -41.835938 14.6875 -42.140625 C 14.957031 -42.441406 15.359375 -42.625 15.890625 -42.6875 C 18.828125 -42.957031 22.144531 -44.441406 25.84375 -47.140625 C 29.539062 -49.835938 32.554688 -52.953125 34.890625 -56.484375 C 35.285156 -57.359375 36.53125 -57.796875 38.625 -57.796875 C 40.726562 -57.796875 41.613281 -57.359375 41.28125 -56.484375 Z M 41.28125 -56.484375 "/></g></g></g><g fill="#8A6B24" fill-opacity="1"><g transform="translate(571.070914, 474.950768)"><g><path d="M 5.6875 1.09375 C 4.625 1.09375 3.554688 0.773438 2.484375 0.140625 C 1.421875 -0.484375 0.59375 -1.378906 0 -2.546875 C -0.601562 -3.710938 -0.753906 -4.960938 -0.453125 -6.296875 C -0.148438 -7.628906 0.429688 -8.894531 1.296875 -10.09375 C 3.296875 -12.894531 6.078125 -15.613281 9.640625 -18.25 C 13.203125 -20.882812 16.800781 -23.132812 20.4375 -25 C 24.070312 -26.863281 26.867188 -28.03125 28.828125 -28.5 C 30.796875 -28.96875 32.664062 -29.203125 34.4375 -29.203125 C 36.207031 -29.203125 37.625 -28.75 38.6875 -27.84375 C 39.75 -26.945312 40.179688 -26 39.984375 -25 C 39.921875 -24.664062 39.835938 -24.460938 39.734375 -24.390625 C 39.640625 -24.328125 39.488281 -24.363281 39.28125 -24.5 C 38.75 -25.757812 37.234375 -26.390625 34.734375 -26.390625 C 32.234375 -26.390625 29.21875 -25.570312 25.6875 -23.9375 C 22.15625 -22.3125 18.691406 -20.265625 15.296875 -17.796875 C 12.421875 -15.597656 9.785156 -13.113281 7.390625 -10.34375 C 4.992188 -7.582031 3.660156 -5.566406 3.390625 -4.296875 C 2.796875 -1.828125 3.195312 -0.59375 4.59375 -0.59375 C 5.988281 -0.59375 8.390625 -1.726562 11.796875 -4 C 17.460938 -8 21.359375 -10.929688 23.484375 -12.796875 C 31.148438 -19.398438 35.21875 -22.703125 35.6875 -22.703125 C 36.488281 -22.703125 37.40625 -22.46875 38.4375 -22 C 39.46875 -21.53125 39.71875 -20.960938 39.1875 -20.296875 C 34.65625 -15.492188 31.523438 -10.660156 29.796875 -5.796875 C 29.585938 -5.203125 29.382812 -4.4375 29.1875 -3.5 C 28.988281 -2.5625 29.085938 -1.796875 29.484375 -1.203125 C 30.222656 -0.128906 31.554688 -0.0625 33.484375 -1 C 35.421875 -1.9375 38.269531 -3.800781 42.03125 -6.59375 C 45.800781 -9.394531 48.921875 -12.128906 51.390625 -14.796875 C 51.722656 -15.128906 52.035156 -15.210938 52.328125 -15.046875 C 52.628906 -14.878906 52.78125 -14.726562 52.78125 -14.59375 C 52.519531 -13.59375 50.421875 -11.410156 46.484375 -8.046875 C 42.554688 -4.679688 39.625 -2.398438 37.6875 -1.203125 C 34.019531 1.128906 30.851562 2.296875 28.1875 2.296875 C 25.65625 2.296875 24.222656 1.03125 23.890625 -1.5 C 23.890625 -2.300781 24.023438 -3.203125 24.296875 -4.203125 C 24.960938 -7.203125 26.328125 -10.367188 28.390625 -13.703125 C 28.054688 -13.566406 26.503906 -12.234375 23.734375 -9.703125 C 20.972656 -7.171875 17.859375 -4.738281 14.390625 -2.40625 C 10.921875 -0.0703125 8.019531 1.09375 5.6875 1.09375 Z M 5.6875 1.09375 "/></g></g></g><g fill="#8A6B24" fill-opacity="1"><g transform="translate(616.763761, 474.950768)"><g><path d="M 21.796875 -28 C 27.054688 -28.46875 30.234375 -28.703125 31.328125 -28.703125 C 32.429688 -28.703125 32.914062 -28.535156 32.78125 -28.203125 C 32.71875 -27.796875 31.851562 -27.375 30.1875 -26.9375 C 28.519531 -26.507812 24.585938 -25.960938 18.390625 -25.296875 C 17.921875 -24.691406 17.351562 -23.992188 16.6875 -23.203125 C 15.289062 -21.597656 14.523438 -20.628906 14.390625 -20.296875 C 8.859375 -12.703125 5.757812 -7.867188 5.09375 -5.796875 C 4.894531 -5.203125 4.675781 -4.4375 4.4375 -3.5 C 4.207031 -2.5625 4.289062 -1.796875 4.6875 -1.203125 C 5.351562 -0.128906 6.671875 -0.0625 8.640625 -1 C 10.609375 -1.9375 13.457031 -3.800781 17.1875 -6.59375 C 20.925781 -9.394531 24.0625 -12.128906 26.59375 -14.796875 C 26.988281 -15.128906 27.351562 -15.195312 27.6875 -15 C 28.550781 -14.53125 26.21875 -11.894531 20.6875 -7.09375 C 15.351562 -2.5 11.125 0.332031 8 1.40625 C 6.195312 2 4.726562 2.296875 3.59375 2.296875 C 0.925781 2.296875 -0.539062 1.03125 -0.8125 -1.5 C -0.875 -1.96875 -0.804688 -2.535156 -0.609375 -3.203125 C -0.078125 -5.535156 1.789062 -9.066406 5 -13.796875 C 4.53125 -13.066406 2.863281 -11.398438 0 -8.796875 C -0.800781 -8.128906 -1.269531 -8.128906 -1.40625 -8.796875 C -1.46875 -8.929688 -1.46875 -9.113281 -1.40625 -9.34375 C -1.34375 -9.582031 -1.144531 -9.867188 -0.8125 -10.203125 C 3.394531 -14.265625 6.765625 -17.695312 9.296875 -20.5 C 9.296875 -20.5625 10.328125 -21.960938 12.390625 -24.703125 C 11.722656 -24.566406 11.039062 -24.5 10.34375 -24.5 C 9.644531 -24.5 9.175781 -24.710938 8.9375 -25.140625 C 8.707031 -25.578125 8.789062 -26.097656 9.1875 -26.703125 C 9.925781 -27.765625 11.828125 -28.363281 14.890625 -28.5 C 15.023438 -28.632812 15.191406 -28.703125 15.390625 -28.703125 L 22.484375 -38 C 22.890625 -38.53125 23.320312 -39.078125 23.78125 -39.640625 C 24.25 -40.210938 24.597656 -40.644531 24.828125 -40.9375 C 25.066406 -41.238281 25.316406 -41.554688 25.578125 -41.890625 C 25.847656 -42.222656 26.066406 -42.457031 26.234375 -42.59375 C 26.398438 -42.726562 26.585938 -42.863281 26.796875 -43 C 27.128906 -43.394531 27.941406 -43.59375 29.234375 -43.59375 C 30.535156 -43.59375 31.320312 -43.226562 31.59375 -42.5 C 31.789062 -42.226562 31.804688 -41.773438 31.640625 -41.140625 C 31.472656 -40.503906 31.070312 -39.800781 30.4375 -39.03125 C 29.800781 -38.269531 29.179688 -37.722656 28.578125 -37.390625 C 27.984375 -37.054688 27.519531 -36.691406 27.1875 -36.296875 L 20.484375 -27.890625 Z M 21.796875 -28 "/></g></g></g><g fill="#8A6B24" fill-opacity="1"><g transform="translate(639.360222, 474.950768)"><g><path d="M 15.59375 -27.703125 C 17.257812 -27.703125 18.125 -27.164062 18.1875 -26.09375 C 18.1875 -25.5 17.96875 -24.914062 17.53125 -24.34375 C 17.101562 -23.78125 16.789062 -23.332031 16.59375 -23 C 16.394531 -22.664062 16.226562 -22.398438 16.09375 -22.203125 C 15.625 -21.535156 15.15625 -20.898438 14.6875 -20.296875 C 9.09375 -12.703125 5.960938 -7.867188 5.296875 -5.796875 C 5.097656 -5.203125 4.894531 -4.4375 4.6875 -3.5 C 4.488281 -2.5625 4.59375 -1.796875 5 -1.203125 C 5.664062 -0.128906 6.960938 -0.0625 8.890625 -1 C 10.828125 -1.9375 13.675781 -3.800781 17.4375 -6.59375 C 21.207031 -9.394531 24.359375 -12.128906 26.890625 -14.796875 C 27.222656 -15.128906 27.539062 -15.210938 27.84375 -15.046875 C 28.144531 -14.878906 28.273438 -14.710938 28.234375 -14.546875 C 28.203125 -14.378906 28.085938 -14.195312 27.890625 -14 C 26.492188 -12.195312 24.160156 -9.894531 20.890625 -7.09375 C 15.554688 -2.5 11.359375 0.332031 8.296875 1.40625 C 6.492188 2 5.023438 2.296875 3.890625 2.296875 C 1.222656 2.296875 -0.273438 1.03125 -0.609375 -1.5 C -0.609375 -1.96875 -0.539062 -2.535156 -0.40625 -3.203125 C 0.125 -5.535156 2.023438 -9.066406 5.296875 -13.796875 C 4.765625 -13.066406 3.0625 -11.398438 0.1875 -8.796875 C -0.539062 -8.128906 -1.003906 -8.128906 -1.203125 -8.796875 C -1.203125 -8.929688 -1.1875 -9.113281 -1.15625 -9.34375 C -1.125 -9.582031 -0.941406 -9.867188 -0.609375 -10.203125 C 3.585938 -14.265625 6.957031 -17.695312 9.5 -20.5 C 9.425781 -20.832031 9.59375 -21.265625 10 -21.796875 C 12.195312 -25.523438 13.828125 -27.492188 14.890625 -27.703125 C 15.085938 -27.703125 15.320312 -27.703125 15.59375 -27.703125 Z M 26.59375 -41 L 24.984375 -37.796875 C 24.859375 -37.191406 24.210938 -36.222656 23.046875 -34.890625 C 21.878906 -33.554688 21.0625 -32.890625 20.59375 -32.890625 C 17.726562 -32.890625 16.460938 -33.59375 16.796875 -35 C 16.859375 -35.257812 18.554688 -36.488281 21.890625 -38.6875 L 23.890625 -40 C 25.160156 -40.925781 25.925781 -41.390625 26.1875 -41.390625 C 26.457031 -41.390625 26.59375 -41.257812 26.59375 -41 Z M 26.59375 -41 "/></g></g></g><g fill="#8A6B24" fill-opacity="1"><g transform="translate(661.956682, 474.950768)"><g><path d="M 5.6875 1.09375 C 4.625 1.09375 3.554688 0.773438 2.484375 0.140625 C 1.421875 -0.484375 0.59375 -1.378906 0 -2.546875 C -0.601562 -3.710938 -0.753906 -4.960938 -0.453125 -6.296875 C -0.148438 -7.628906 0.429688 -8.894531 1.296875 -10.09375 C 3.296875 -12.894531 6.078125 -15.613281 9.640625 -18.25 C 13.203125 -20.882812 16.800781 -23.132812 20.4375 -25 C 24.070312 -26.863281 26.867188 -28.03125 28.828125 -28.5 C 30.796875 -28.96875 32.664062 -29.203125 34.4375 -29.203125 C 36.207031 -29.203125 37.625 -28.75 38.6875 -27.84375 C 39.75 -26.945312 40.179688 -26 39.984375 -25 C 39.921875 -24.664062 39.835938 -24.460938 39.734375 -24.390625 C 39.640625 -24.328125 39.488281 -24.363281 39.28125 -24.5 C 38.75 -25.757812 37.234375 -26.390625 34.734375 -26.390625 C 32.234375 -26.390625 29.21875 -25.570312 25.6875 -23.9375 C 22.15625 -22.3125 18.691406 -20.265625 15.296875 -17.796875 C 12.421875 -15.597656 9.785156 -13.113281 7.390625 -10.34375 C 4.992188 -7.582031 3.660156 -5.566406 3.390625 -4.296875 C 2.796875 -1.828125 3.195312 -0.59375 4.59375 -0.59375 C 5.988281 -0.59375 8.390625 -1.726562 11.796875 -4 C 17.460938 -8 21.359375 -10.929688 23.484375 -12.796875 C 31.148438 -19.398438 35.21875 -22.703125 35.6875 -22.703125 C 36.488281 -22.703125 37.40625 -22.46875 38.4375 -22 C 39.46875 -21.53125 39.71875 -20.960938 39.1875 -20.296875 C 34.65625 -15.492188 31.523438 -10.660156 29.796875 -5.796875 C 29.585938 -5.203125 29.382812 -4.4375 29.1875 -3.5 C 28.988281 -2.5625 29.085938 -1.796875 29.484375 -1.203125 C 30.222656 -0.128906 31.554688 -0.0625 33.484375 -1 C 35.421875 -1.9375 38.269531 -3.800781 42.03125 -6.59375 C 45.800781 -9.394531 48.921875 -12.128906 51.390625 -14.796875 C 51.722656 -15.128906 52.035156 -15.210938 52.328125 -15.046875 C 52.628906 -14.878906 52.78125 -14.726562 52.78125 -14.59375 C 52.519531 -13.59375 50.421875 -11.410156 46.484375 -8.046875 C 42.554688 -4.679688 39.625 -2.398438 37.6875 -1.203125 C 34.019531 1.128906 30.851562 2.296875 28.1875 2.296875 C 25.65625 2.296875 24.222656 1.03125 23.890625 -1.5 C 23.890625 -2.300781 24.023438 -3.203125 24.296875 -4.203125 C 24.960938 -7.203125 26.328125 -10.367188 28.390625 -13.703125 C 28.054688 -13.566406 26.503906 -12.234375 23.734375 -9.703125 C 20.972656 -7.171875 17.859375 -4.738281 14.390625 -2.40625 C 10.921875 -0.0703125 8.019531 1.09375 5.6875 1.09375 Z M 5.6875 1.09375 "/></g></g></g><g fill="#8A6B24" fill-opacity="1"><g transform="translate(707.649529, 474.950768)"><g/></g></g><g fill="#8A6B24" fill-opacity="1"><g transform="translate(729.546104, 474.950768)"><g><path d="M 22.296875 -5.796875 C 22.492188 -5.796875 22.539062 -5.59375 22.4375 -5.1875 C 22.34375 -4.789062 21.726562 -4.128906 20.59375 -3.203125 L 19.296875 -1.703125 C 16.828125 1.035156 15.125 2.632812 14.1875 3.09375 C 13.257812 3.5625 12.546875 3.796875 12.046875 3.796875 C 11.546875 3.796875 10.796875 3.675781 9.796875 3.4375 C 8.796875 3.207031 8.3125 2.957031 8.34375 2.6875 C 8.382812 2.425781 8.4375 2.164062 8.5 1.90625 C 9.300781 -1.363281 13.96875 -8.734375 22.5 -20.203125 C 20.894531 -19.992188 19.675781 -19.890625 18.84375 -19.890625 C 18.007812 -19.890625 17.359375 -20.140625 16.890625 -20.640625 C 16.429688 -21.140625 16.300781 -21.789062 16.5 -22.59375 C 16.695312 -23.394531 17.5625 -24.128906 19.09375 -24.796875 C 20.625 -25.460938 21.773438 -25.796875 22.546875 -25.796875 C 23.316406 -25.796875 23.898438 -25.476562 24.296875 -24.84375 C 24.691406 -24.207031 24.957031 -23.890625 25.09375 -23.890625 L 25.390625 -23.890625 C 27.390625 -26.429688 29.1875 -28.765625 30.78125 -30.890625 C 32.382812 -33.023438 33.269531 -34.410156 33.4375 -35.046875 C 33.601562 -35.679688 33.625 -36.164062 33.5 -36.5 C 34.363281 -38.425781 36.578125 -40.890625 40.140625 -43.890625 C 43.710938 -46.890625 46.695312 -48.390625 49.09375 -48.390625 C 50.15625 -48.390625 51.367188 -47.972656 52.734375 -47.140625 C 54.109375 -46.304688 54.523438 -45.222656 53.984375 -43.890625 C 53.585938 -44.222656 53.191406 -44.390625 52.796875 -44.390625 C 48.265625 -44.390625 40.460938 -37.59375 29.390625 -24 C 31.660156 -24.195312 34.03125 -24.492188 36.5 -24.890625 C 44.757812 -25.890625 49.421875 -26.390625 50.484375 -26.390625 C 51.554688 -26.390625 52.222656 -26.375 52.484375 -26.34375 C 52.753906 -26.3125 52.988281 -26.226562 53.1875 -26.09375 C 53.382812 -25.957031 53.519531 -25.828125 53.59375 -25.703125 C 53.59375 -25.296875 52.722656 -24.828125 50.984375 -24.296875 C 46.785156 -23.023438 38.65625 -21.757812 26.59375 -20.5 C 18.664062 -10.363281 14.429688 -4.128906 13.890625 -1.796875 C 13.628906 -0.660156 14.015625 -0.242188 15.046875 -0.546875 C 16.078125 -0.847656 17.0625 -1.46875 18 -2.40625 C 20.257812 -4.664062 21.691406 -5.796875 22.296875 -5.796875 Z M 72.390625 -53.390625 C 74.785156 -55.523438 76.851562 -56.59375 78.59375 -56.59375 C 79.382812 -56.59375 79.960938 -56.390625 80.328125 -55.984375 C 80.703125 -55.585938 80.851562 -55.1875 80.78125 -54.78125 C 80.71875 -54.382812 80.4375 -53.984375 79.9375 -53.578125 C 79.4375 -53.179688 78.519531 -52.566406 77.1875 -51.734375 C 75.851562 -50.898438 74.785156 -50.15625 73.984375 -49.5 C 70.054688 -46.363281 67.828125 -43.660156 67.296875 -41.390625 C 67.085938 -40.390625 67.117188 -39.554688 67.390625 -38.890625 C 67.660156 -38.222656 67.507812 -37.804688 66.9375 -37.640625 C 66.375 -37.472656 65.925781 -37.691406 65.59375 -38.296875 C 65.0625 -38.691406 65.0625 -40.023438 65.59375 -42.296875 C 66.320312 -45.296875 67.453125 -47.796875 68.984375 -49.796875 C 69.117188 -49.992188 69.398438 -50.34375 69.828125 -50.84375 C 70.265625 -51.34375 70.582031 -51.691406 70.78125 -51.890625 C 70.320312 -51.890625 69.070312 -51.890625 67.03125 -51.890625 C 65 -51.890625 61.035156 -52.15625 55.140625 -52.6875 C 49.242188 -53.21875 44.757812 -53.484375 41.6875 -53.484375 C 38.625 -53.484375 36.226562 -53.285156 34.5 -52.890625 C 27.96875 -52.023438 22.097656 -50.273438 16.890625 -47.640625 C 11.691406 -45.003906 8.226562 -41.6875 6.5 -37.6875 C 6.226562 -37.289062 6.023438 -36.804688 5.890625 -36.234375 C 5.765625 -35.671875 5.800781 -34.988281 6 -34.1875 C 6.195312 -33.394531 6.507812 -32.765625 6.9375 -32.296875 C 7.375 -31.828125 8.054688 -31.257812 8.984375 -30.59375 C 9.921875 -29.925781 10.539062 -29.441406 10.84375 -29.140625 C 11.144531 -28.847656 11.144531 -28.597656 10.84375 -28.390625 C 10.539062 -28.191406 10.273438 -28.09375 10.046875 -28.09375 C 9.816406 -28.09375 9.601562 -28.128906 9.40625 -28.203125 C 7.269531 -28.867188 5.632812 -30.113281 4.5 -31.9375 C 3.363281 -33.769531 2.925781 -35.300781 3.1875 -36.53125 C 3.457031 -37.769531 3.863281 -38.820312 4.40625 -39.6875 C 4.601562 -40.425781 4.769531 -40.960938 4.90625 -41.296875 C 6.96875 -46.023438 10.832031 -49.691406 16.5 -52.296875 C 23.300781 -55.421875 31.066406 -56.984375 39.796875 -56.984375 C 44.597656 -56.984375 50.363281 -56.414062 57.09375 -55.28125 C 63.820312 -54.15625 68.921875 -53.523438 72.390625 -53.390625 Z M 72.390625 -53.390625 "/></g></g></g><g fill="#8A6B24" fill-opacity="1"><g transform="translate(782.537808, 474.950768)"><g><path d="M 43.984375 -50.984375 C 45.117188 -52.453125 45.785156 -53.585938 45.984375 -54.390625 C 46.316406 -55.785156 45.914062 -56.484375 44.78125 -56.484375 C 43.851562 -56.484375 42.554688 -55.953125 40.890625 -54.890625 C 34.617188 -50.753906 27.953125 -44.222656 20.890625 -35.296875 C 15.222656 -28.097656 10.859375 -21.929688 7.796875 -16.796875 C 13.128906 -19.929688 19.457031 -25.03125 26.78125 -32.09375 C 34.113281 -39.15625 39.847656 -45.453125 43.984375 -50.984375 Z M 5.390625 -12.796875 C 4.054688 -10.535156 3.269531 -9.019531 3.03125 -8.25 C 2.800781 -7.476562 2.535156 -6.441406 2.234375 -5.140625 C 1.941406 -3.847656 1.992188 -2.664062 2.390625 -1.59375 C 3.128906 0.195312 5 0.328125 8 -1.203125 C 10.257812 -2.265625 13.238281 -4.210938 16.9375 -7.046875 C 20.632812 -9.878906 23.585938 -12.460938 25.796875 -14.796875 C 25.992188 -14.992188 26.222656 -15.09375 26.484375 -15.09375 C 27.085938 -15.09375 27.15625 -14.660156 26.6875 -13.796875 C 25.289062 -11.992188 22.90625 -9.691406 19.53125 -6.890625 C 16.164062 -4.097656 13.203125 -1.882812 10.640625 -0.25 C 8.078125 1.382812 5.695312 2.203125 3.5 2.203125 C -1.570312 2.203125 -3.539062 -0.265625 -2.40625 -5.203125 C -2.34375 -5.398438 -2.273438 -5.597656 -2.203125 -5.796875 C -0.867188 -10.460938 3.109375 -17.507812 9.734375 -26.9375 C 16.367188 -36.375 22.054688 -43.492188 26.796875 -48.296875 L 30.78125 -52.1875 C 31.71875 -53.050781 33.019531 -54.117188 34.6875 -55.390625 C 37.957031 -57.921875 41.007812 -59.1875 43.84375 -59.1875 C 46.675781 -59.1875 48.390625 -58.320312 48.984375 -56.59375 C 49.179688 -55.988281 49.144531 -55.117188 48.875 -53.984375 C 48.613281 -52.859375 47.75 -51.257812 46.28125 -49.1875 C 36.613281 -37.257812 22.984375 -25.128906 5.390625 -12.796875 Z M 5.390625 -12.796875 "/></g></g></g><g fill="#8A6B24" fill-opacity="1"><g transform="translate(806.034129, 474.950768)"><g><path d="M 24.09375 -11 C 25.894531 -13.46875 26.945312 -15.367188 27.25 -16.703125 C 27.550781 -18.035156 27.648438 -19.082031 27.546875 -19.84375 C 27.441406 -20.613281 27.722656 -21.265625 28.390625 -21.796875 C 29.054688 -22.328125 29.820312 -22.523438 30.6875 -22.390625 C 31.957031 -22.054688 32.273438 -20.554688 31.640625 -17.890625 C 31.003906 -15.222656 28.625 -11.726562 24.5 -7.40625 C 24.164062 -5.601562 24.894531 -4.703125 26.6875 -4.703125 C 28.488281 -4.703125 31.65625 -6.632812 36.1875 -10.5 C 38.394531 -12.5 39.78125 -13.796875 40.34375 -14.390625 C 40.90625 -14.992188 41.335938 -15.210938 41.640625 -15.046875 C 41.941406 -14.878906 42.09375 -14.726562 42.09375 -14.59375 C 41.894531 -13.925781 40.296875 -12.195312 37.296875 -9.40625 C 32.429688 -4.738281 28.53125 -2.40625 25.59375 -2.40625 C 23.664062 -2.40625 22.46875 -3.238281 22 -4.90625 C 20.394531 -3.5 18.796875 -2.195312 17.203125 -1 C 14.128906 1.195312 10.992188 2.296875 7.796875 2.296875 C 5.992188 2.296875 4.59375 1.863281 3.59375 1 C 1.59375 -0.394531 0.992188 -2.894531 1.796875 -6.5 C 2.734375 -10.425781 5 -14.425781 8.59375 -18.5 C 10.664062 -20.894531 12.929688 -22.992188 15.390625 -24.796875 C 19.328125 -27.660156 22.765625 -29.09375 25.703125 -29.09375 C 26.429688 -29.09375 27.128906 -28.992188 27.796875 -28.796875 C 29.597656 -28.128906 30.296875 -26.863281 29.890625 -25 C 29.492188 -23.46875 28.894531 -22.703125 28.09375 -22.703125 C 27.832031 -22.828125 27.800781 -23.328125 28 -24.203125 C 28.257812 -25.398438 27.722656 -26 26.390625 -26 C 24.054688 -26 20.570312 -23.863281 15.9375 -19.59375 C 11.3125 -15.332031 8.132812 -11.035156 6.40625 -6.703125 C 6.070312 -5.960938 5.800781 -5.144531 5.59375 -4.25 C 5.394531 -3.351562 5.460938 -2.320312 5.796875 -1.15625 C 6.128906 0.0078125 7.113281 0.59375 8.75 0.59375 C 10.382812 0.59375 12.332031 -0.132812 14.59375 -1.59375 C 16.863281 -3.0625 19.03125 -4.929688 21.09375 -7.203125 L 20.890625 -7.796875 C 20.890625 -8.867188 21.222656 -9.734375 21.890625 -10.390625 C 22.554688 -11.054688 23.289062 -11.257812 24.09375 -11 Z M 24.09375 -11 "/></g></g></g><g fill="#8A6B24" fill-opacity="1"><g transform="translate(841.128625, 474.950768)"><g><path d="M 12.5 2.5 C 9.101562 2.5 7.867188 0.453125 8.796875 -3.640625 C 9.734375 -7.742188 13.832031 -12.796875 21.09375 -18.796875 C 21.625 -19.265625 22.023438 -19.628906 22.296875 -19.890625 L 23.296875 -20.890625 C 24.492188 -22.160156 25.09375 -22.960938 25.09375 -23.296875 L 25 -24.203125 C 24.925781 -24.992188 23.972656 -25.570312 22.140625 -25.9375 C 20.304688 -26.3125 18.789062 -26.5 17.59375 -26.5 C 9.59375 -18.03125 4.992188 -13.195312 3.796875 -12 C 2.597656 -10.800781 1.847656 -10.300781 1.546875 -10.5 C 1.242188 -10.695312 1.125 -10.925781 1.1875 -11.1875 C 1.257812 -11.457031 1.5625 -11.859375 2.09375 -12.390625 C 6.695312 -16.796875 10.898438 -21.5 14.703125 -26.5 C 13.898438 -26.632812 13.347656 -26.914062 13.046875 -27.34375 C 12.742188 -27.78125 12.875 -28.515625 13.4375 -29.546875 C 14.007812 -30.578125 15.34375 -31.957031 17.4375 -33.6875 C 19.539062 -35.425781 21.289062 -36.59375 22.6875 -37.1875 C 24.09375 -37.789062 24.976562 -38.160156 25.34375 -38.296875 C 25.707031 -38.429688 26.09375 -38.5 26.5 -38.5 C 27.300781 -38.5 26.765625 -37.296875 24.890625 -34.890625 L 19.59375 -28.703125 C 22.53125 -28.492188 25.066406 -28.390625 27.203125 -28.390625 L 30.6875 -28.5 C 31.820312 -28.5 32.625 -28.347656 33.09375 -28.046875 C 33.5625 -27.742188 33.59375 -27.226562 33.1875 -26.5 C 32.394531 -25.226562 30.832031 -23.523438 28.5 -21.390625 C 23.425781 -16.722656 19.257812 -11.757812 16 -6.5 C 15.257812 -5.226562 14.789062 -4.128906 14.59375 -3.203125 C 14.125 -1.265625 14.59375 -0.296875 16 -0.296875 C 16.46875 -0.296875 17.429688 -0.660156 18.890625 -1.390625 C 20.359375 -2.128906 22.941406 -3.878906 26.640625 -6.640625 C 30.335938 -9.410156 33.457031 -12.128906 36 -14.796875 C 36.332031 -15.128906 36.664062 -15.210938 37 -15.046875 C 37.332031 -14.878906 37.460938 -14.710938 37.390625 -14.546875 C 37.328125 -14.378906 37.226562 -14.195312 37.09375 -14 C 35.695312 -12.195312 33.363281 -9.894531 30.09375 -7.09375 C 26.832031 -4.300781 23.765625 -2.035156 20.890625 -0.296875 C 18.097656 1.566406 15.300781 2.5 12.5 2.5 Z M 12.5 2.5 "/></g></g></g><g fill="#8A6B24" fill-opacity="1"><g transform="translate(872.623703, 474.950768)"><g><path d="M 15.59375 -27.703125 C 17.257812 -27.703125 18.125 -27.164062 18.1875 -26.09375 C 18.1875 -25.5 17.96875 -24.914062 17.53125 -24.34375 C 17.101562 -23.78125 16.789062 -23.332031 16.59375 -23 C 16.394531 -22.664062 16.226562 -22.398438 16.09375 -22.203125 C 15.625 -21.535156 15.15625 -20.898438 14.6875 -20.296875 C 9.09375 -12.703125 5.960938 -7.867188 5.296875 -5.796875 C 5.097656 -5.203125 4.894531 -4.4375 4.6875 -3.5 C 4.488281 -2.5625 4.59375 -1.796875 5 -1.203125 C 5.664062 -0.128906 6.960938 -0.0625 8.890625 -1 C 10.828125 -1.9375 13.675781 -3.800781 17.4375 -6.59375 C 21.207031 -9.394531 24.359375 -12.128906 26.890625 -14.796875 C 27.222656 -15.128906 27.539062 -15.210938 27.84375 -15.046875 C 28.144531 -14.878906 28.273438 -14.710938 28.234375 -14.546875 C 28.203125 -14.378906 28.085938 -14.195312 27.890625 -14 C 26.492188 -12.195312 24.160156 -9.894531 20.890625 -7.09375 C 15.554688 -2.5 11.359375 0.332031 8.296875 1.40625 C 6.492188 2 5.023438 2.296875 3.890625 2.296875 C 1.222656 2.296875 -0.273438 1.03125 -0.609375 -1.5 C -0.609375 -1.96875 -0.539062 -2.535156 -0.40625 -3.203125 C 0.125 -5.535156 2.023438 -9.066406 5.296875 -13.796875 C 4.765625 -13.066406 3.0625 -11.398438 0.1875 -8.796875 C -0.539062 -8.128906 -1.003906 -8.128906 -1.203125 -8.796875 C -1.203125 -8.929688 -1.1875 -9.113281 -1.15625 -9.34375 C -1.125 -9.582031 -0.941406 -9.867188 -0.609375 -10.203125 C 3.585938 -14.265625 6.957031 -17.695312 9.5 -20.5 C 9.425781 -20.832031 9.59375 -21.265625 10 -21.796875 C 12.195312 -25.523438 13.828125 -27.492188 14.890625 -27.703125 C 15.085938 -27.703125 15.320312 -27.703125 15.59375 -27.703125 Z M 26.59375 -41 L 24.984375 -37.796875 C 24.859375 -37.191406 24.210938 -36.222656 23.046875 -34.890625 C 21.878906 -33.554688 21.0625 -32.890625 20.59375 -32.890625 C 17.726562 -32.890625 16.460938 -33.59375 16.796875 -35 C 16.859375 -35.257812 18.554688 -36.488281 21.890625 -38.6875 L 23.890625 -40 C 25.160156 -40.925781 25.925781 -41.390625 26.1875 -41.390625 C 26.457031 -41.390625 26.59375 -41.257812 26.59375 -41 Z M 26.59375 -41 "/></g></g></g><g fill="#8A6B24" fill-opacity="1"><g transform="translate(895.220176, 474.950768)"><g><path d="M 1.390625 1 C 0.253906 2 -0.128906 2.796875 0.234375 3.390625 C 0.609375 3.992188 1.109375 4.296875 1.734375 4.296875 C 2.367188 4.296875 3.054688 4.195312 3.796875 4 C 6.859375 3.132812 10.039062 1.421875 13.34375 -1.140625 C 16.644531 -3.710938 18.59375 -6.332031 19.1875 -9 C 19.519531 -10.46875 18.253906 -12.066406 15.390625 -13.796875 C 14.054688 -14.597656 13.289062 -15.066406 13.09375 -15.203125 C 11.5625 -16.398438 10.726562 -17.597656 10.59375 -18.796875 C 9.257812 -17.191406 7.226562 -14.890625 4.5 -11.890625 C 3.894531 -11.359375 3.425781 -11.242188 3.09375 -11.546875 C 2.757812 -11.847656 2.828125 -12.265625 3.296875 -12.796875 C 6.890625 -16.523438 9.390625 -19.660156 10.796875 -22.203125 C 12.128906 -25.867188 15.5625 -29.164062 21.09375 -32.09375 C 26.625 -35.03125 31.390625 -36.5 35.390625 -36.5 C 37.921875 -36.5 39.601562 -36.046875 40.4375 -35.140625 C 41.269531 -34.242188 41.585938 -33.359375 41.390625 -32.484375 C 41.191406 -31.617188 40.707031 -30.617188 39.9375 -29.484375 C 39.164062 -28.359375 37.914062 -27.296875 36.1875 -26.296875 C 35.71875 -26.023438 35.382812 -26.09375 35.1875 -26.5 C 35.1875 -26.894531 35.617188 -27.441406 36.484375 -28.140625 C 37.347656 -28.847656 38.015625 -29.800781 38.484375 -31 C 38.953125 -32.195312 38.585938 -32.925781 37.390625 -33.1875 C 37.191406 -33.1875 36.988281 -33.1875 36.78125 -33.1875 C 34.1875 -33.1875 30.707031 -32.21875 26.34375 -30.28125 C 21.976562 -28.351562 18.359375 -25.859375 15.484375 -22.796875 C 14.359375 -21.660156 13.660156 -20.507812 13.390625 -19.34375 C 13.117188 -18.175781 13.6875 -17.128906 15.09375 -16.203125 C 15.625 -15.796875 16.585938 -15.160156 17.984375 -14.296875 C 19.390625 -13.429688 20.375 -12.796875 20.9375 -12.390625 C 21.507812 -11.992188 22.160156 -11.363281 22.890625 -10.5 C 23.617188 -9.632812 23.953125 -8.832031 23.890625 -8.09375 C 23.753906 -6.09375 22.320312 -3.894531 19.59375 -1.5 C 15.65625 1.96875 10.421875 4.398438 3.890625 5.796875 C 2.421875 6.128906 0.972656 6.296875 -0.453125 6.296875 C -1.890625 6.296875 -2.773438 5.765625 -3.109375 4.703125 C -3.242188 4.429688 -3.242188 4.007812 -3.109375 3.4375 C -2.972656 2.875 -2.207031 1.960938 -0.8125 0.703125 C 0.394531 -0.296875 2.195312 -1.265625 4.59375 -2.203125 C 4.789062 -2.265625 4.957031 -2.226562 5.09375 -2.09375 C 5.226562 -1.96875 5.226562 -1.800781 5.09375 -1.59375 C 4.957031 -1.394531 4.539062 -1.160156 3.84375 -0.890625 C 3.144531 -0.628906 2.328125 0 1.390625 1 Z M 1.390625 1 "/></g></g></g></svg>